Coordinates
version=1
nRows=26
nColumns=38
inDegrees=no

Units are S.I. units (second, meters, Newtons, ...)
If the header above contains a line with 'inDegrees', this indicates whether rotational values are in degrees (yes) or radians (no).

endheader
time	pelvis_tilt	pelvis_list	pelvis_rotation	pelvis_tx	pelvis_ty	pelvis_tz	hip_flexion_r	hip_adduction_r	hip_rotation_r	knee_angle_r	ankle_angle_r	subtalar_angle_r	mtp_angle_r	hip_flexion_l	hip_adduction_l	hip_rotation_l	knee_angle_l	ankle_angle_l	subtalar_angle_l	mtp_angle_l	lumbar_extension	lumbar_bending	lumbar_rotation	arm_flex_r	arm_add_r	arm_rot_r	elbow_flex_r	pro_sup_r	wrist_flex_r	wrist_dev_r	arm_flex_l	arm_add_l	arm_rot_l	elbow_flex_l	pro_sup_l	wrist_flex_l	wrist_dev_l
1.42	-0.432042	-0.151284	-0.0782493	1.12501	0.956425	-0.420959	1.24265	0.131455	-0.201371	-1.30185	0.506287	0.0483124	0	0.0245858	-0.140938	-0.23113	-0.448634	0.0236902	0.105498	0	0.189274	0.234844	-0.25107	-1.02827	-0.229127	-0.27207	2.04671	1.67731	0	0	-0.209717	-0.243149	-0.0499328	2.38332	1.73081	0	0
1.43	-0.444257	-0.154174	-0.0865764	1.12739	0.959691	-0.421853	1.23772	0.1422	-0.215088	-1.15229	0.527814	0.0927872	0	-1.40948e-05	-0.13339	-0.203133	-0.44354	-0.0444359	0.095224	0	0.206409	0.249581	-0.248876	-1.06607	-0.223046	-0.295667	2.08485	1.6678	0	0	-0.197859	-0.255833	-0.0155208	2.40591	1.73342	0	0
1.44	-0.450803	-0.152686	-0.0933852	1.12945	0.962369	-0.422637	1.21979	0.151186	-0.227786	-0.999431	0.549854	0.144246	0	-0.0205324	-0.121912	-0.175178	-0.457678	-0.0963916	0.0997412	0	0.21549	0.258054	-0.244297	-1.09516	-0.215233	-0.315194	2.11728	1.65753	0	0	-0.187658	-0.271402	0.0149719	2.42127	1.73362	0	0
1.45	-0.451017	-0.147623	-0.0985611	1.13121	0.964419	-0.423256	1.18974	0.158767	-0.239783	-0.847382	0.570165	0.200009	0	-0.0378792	-0.108007	-0.149701	-0.491564	-0.131545	0.115827	0	0.215955	0.260633	-0.237066	-1.11453	-0.206138	-0.330407	2.14353	1.64785	0	0	-0.17948	-0.288733	0.0410801	2.42848	1.72966	0	0
1.46	-0.444854	-0.140048	-0.102073	1.1327	0.96579	-0.423689	1.14942	0.16516	-0.251446	-0.701301	0.585791	0.256729	0	-0.0524393	-0.0936062	-0.129258	-0.544983	-0.151426	0.138113	0	0.208032	0.258173	-0.227076	-1.12361	-0.196409	-0.341451	2.16332	1.64002	0	0	-0.173683	-0.306501	0.0626969	2.42677	1.72036	0	0
1.47	-0.432958	-0.131151	-0.103971	1.13394	0.9664	-0.423952	1.10167	0.170344	-0.263191	-0.567153	0.593452	0.310688	0	-0.063953	-0.0808304	-0.11596	-0.617011	-0.158958	0.160162	0	0.192745	0.251913	-0.214492	-1.1223	-0.186939	-0.348726	2.17659	1.63504	0	0	-0.170664	-0.323267	0.0798814	2.4156	1.70543	0	0
1.48	-0.416598	-0.12211	-0.1044	1.13493	0.966143	-0.424084	1.05015	0.174091	-0.275349	-0.451317	0.590129	0.35802	0	-0.0715748	-0.0716758	-0.110922	-0.706015	-0.157358	0.1757	0	0.171767	0.243318	-0.199777	-1.11089	-0.178859	-0.352715	2.18344	1.63344	0	0	-0.170881	-0.337617	0.0926691	2.39482	1.68564	0	0
1.49	-0.397459	-0.113971	-0.10362	1.13564	0.964898	-0.424133	0.999018	0.176093	-0.288015	-0.36007	0.573882	0.395075	0	-0.0740942	-0.0677153	-0.113944	-0.809676	-0.149216	0.179741	0	0.147119	0.233904	-0.183563	-1.08997	-0.173426	-0.35383	2.18409	1.6352	0	0	-0.174766	-0.348316	0.100994	2.36464	1.66272	0	0
1.5	-0.377345	-0.10756	-0.102028	1.13599	0.962562	-0.424139	0.952436	0.176109	-0.301017	-0.299021	0.54475	0.419113	0	-0.0702244	-0.0698863	-0.123568	-0.925075	-0.136064	0.169507	0	0.120805	0.225068	-0.166448	-1.06027	-0.171825	-0.352324	2.17886	1.63968	0	0	-0.18257	-0.35446	0.104738	2.32557	1.63906	0	0
1.51	-0.357873	-0.103459	-0.100158	1.13591	0.959087	-0.42412	0.914012	0.174078	-0.314147	-0.272479	0.505499	0.429319	0	-0.0588621	-0.0784291	-0.137448	-1.04887	-0.118445	0.145017	0	0.0944808	0.217975	-0.148784	-1.02255	-0.174958	-0.348283	2.16805	1.64576	0	0	-0.194223	-0.355572	0.10384	2.27835	1.6173	0	0
1.52	-0.34026	-0.102025	-0.098632	1.13528	0.954509	-0.424073	0.886193	0.17029	-0.327128	-0.282586	0.461716	0.427126	0	-0.0392407	-0.0929604	-0.152824	-1.1775	-0.0962815	0.109078	0	0.0692446	0.213503	-0.130563	-0.977553	-0.183277	-0.341693	2.15206	1.65203	0	0	-0.209288	-0.35163	0.0984224	2.22387	1.59983	0	0
1.53	-0.325239	-0.103447	-0.0980783	1.13402	0.94897	-0.423971	0.869638	0.165561	-0.339296	-0.328164	0.420873	0.4156	0	-0.0109509	-0.112638	-0.166951	-1.30745	-0.0692827	0.0666815	0	0.0456235	0.212241	-0.111432	-0.926009	-0.196689	-0.332549	2.13136	1.65705	0	0	-0.227029	-0.343049	0.0888806	2.1632	1.58838	0	0
1.54	-0.313088	-0.107771	-0.0989935	1.13208	0.942718	-0.423782	0.862807	0.161277	-0.349209	-0.403846	0.390576	0.398194	0	0.026116	-0.136314	-0.177404	-1.43536	-0.0372873	0.0239111	0	0.023714	0.214487	-0.0908283	-0.86869	-0.214542	-0.320976	2.10669	1.65975	0	0	-0.246584	-0.330637	0.0759386	2.09769	1.58368	0	0
1.55	-0.303729	-0.114845	-0.101593	1.12948	0.936085	-0.423476	0.862241	0.159041	-0.355057	-0.500635	0.376971	0.378214	0	0.0718351	-0.162612	-0.182295	-1.5581	-0.000499164	-0.0133148	0	0.00342084	0.220174	-0.0682052	-0.806568	-0.235674	-0.307339	2.07918	1.65966	0	0	-0.267199	-0.315562	0.0606536	2.02906	1.58531	0	0
1.56	-0.296859	-0.124189	-0.105688	1.12631	0.929453	-0.423048	0.863503	0.159996	-0.355575	-0.607915	0.383923	0.358982	0	0.125884	-0.189884	-0.1804	-1.67281	0.0403875	-0.0405462	0	-0.0152906	0.228744	-0.0432707	-0.740948	-0.258518	-0.292297	2.05051	1.65702	0	0	-0.288469	-0.299294	0.0443584	1.95959	1.59176	0	0
1.57	-0.292119	-0.134926	-0.110681	1.12277	0.923205	-0.422521	0.862041	0.16444	-0.350282	-0.715065	0.412122	0.343209	0	0.187792	-0.216225	-0.171262	-1.77681	0.0841974	-0.0557934	0	-0.032166	0.239103	-0.0161334	-0.673562	-0.28125	-0.276789	2.02295	1.65283	0	0	-0.310507	-0.283521	0.0285242	1.89207	1.60067	0	0
1.58	-0.289246	-0.145803	-0.115677	1.11912	0.91768	-0.421941	0.853924	0.171686	-0.339513	-0.812777	0.458916	0.332662	0	0.256945	-0.23958	-0.155281	-1.86775	0.129368	-0.0599016	0	-0.0465625	0.249671	0.0126791	-0.606531	-0.301981	-0.261937	1.99932	1.64861	0	0	-0.334003	-0.269994	0.0145319	1.82976	1.60934	0	0
1.59	-0.288136	-0.155316	-0.11968	1.11563	0.913145	-0.421362	0.836347	0.18021	-0.324262	-0.89395	0.518978	0.328134	0	0.332527	-0.257946	-0.133729	-1.94362	0.17411	-0.0562354	0	-0.0575254	0.258566	0.042321	-0.542177	-0.318981	-0.248855	1.98264	1.64614	0	0	-0.360135	-0.260311	0.00337877	1.77609	1.61524	0	0
1.6	-0.288827	-0.161928	-0.121817	1.11258	0.909777	-0.420824	0.80784	0.187999	-0.305921	-0.954041	0.58537	0.329544	0	0.413435	-0.269648	-0.108648	-2.00283	0.216679	-0.0496385	0	-0.0640108	0.26385	0.0717978	-0.482692	-0.330927	-0.238378	1.97579	1.64711	0	0	-0.390365	-0.255665	-0.00460219	1.73426	1.61664	0	0
1.61	-0.291416	-0.164308	-0.121508	1.11017	0.907678	-0.420345	0.768183	0.193002	-0.286002	-0.99091	0.650591	0.33604	0	0.498213	-0.27359	-0.0825782	-2.04436	0.255586	-0.0451757	0	-0.065157	0.263822	0.10014	-0.429769	-0.337126	-0.230797	1.98091	1.65281	0	0	-0.426153	-0.256603	-0.00990427	1.70678	1.61297	0	0
1.62	-0.295963	-0.161555	-0.118562	1.10857	0.906881	-0.419922	0.718118	0.193528	-0.265931	-1.00434	0.707377	0.34613	0	0.585044	-0.26945	-0.0581986	-2.06771	0.289853	-0.0467426	0	-0.0605009	0.257277	0.126535	-0.384319	-0.337669	-0.225665	1.99903	1.66386	0	0	-0.468678	-0.262868	-0.013816	1.695	1.60491	0	0
1.63	-0.30242	-0.153322	-0.113158	1.10785	0.907369	-0.419537	0.658994	0.188533	-0.246875	-0.995475	0.749232	0.357787	0	0.671819	-0.257719	-0.0379205	-2.0729	0.31909	-0.0561726	0	-0.0500817	0.243685	0.150395	-0.346382	-0.333461	-0.221776	2.02982	1.68005	0	0	-0.518627	-0.27335	-0.0181995	1.69884	1.59409	0	0
1.64	-0.310585	-0.139849	-0.105768	1.10803	0.909087	-0.419169	0.592451	0.177734	-0.229621	-0.9663	0.77081	0.368632	0	0.756261	-0.23959	-0.0235589	-2.06041	0.343492	-0.0729097	0	-0.0344295	0.223232	0.171368	-0.315244	-0.326079	-0.217337	2.0716	1.70042	0	0	-0.576079	-0.286205	-0.0251341	1.71687	1.58255	0	0
1.65	-0.320094	-0.121872	-0.097027	1.10912	0.911946	-0.418799	0.520233	0.161572	-0.21452	-0.919409	0.768315	0.376223	0	0.83609	-0.216721	-0.0161339	-2.03103	0.363718	-0.0943431	0	-0.0144759	0.196732	0.189332	-0.289708	-0.317492	-0.210311	2.12169	1.72336	0	0	-0.640471	-0.299122	-0.0365214	1.74653	1.5722	0	0
1.66	-0.330452	-0.100476	-0.0876008	1.11107	0.915829	-0.41841	0.444123	0.141071	-0.201442	-0.857924	0.739824	0.378327	0	0.909215	-0.190956	-0.0158494	-1.98581	0.380717	-0.11655	0	0.00857584	0.165446	0.204361	-0.268418	-0.309723	-0.198834	2.17681	1.74687	0	0	-0.710627	-0.309692	-0.0537538	1.78466	1.56437	0	0
1.67	-0.341096	-0.0769239	-0.078087	1.11381	0.920581	-0.417991	0.365981	0.117636	-0.189822	-0.785575	0.685502	0.37328	0	0.973909	-0.164066	-0.0222143	-1.92589	0.395558	-0.135253	0	0.0333996	0.130879	0.216703	-0.250152	-0.304524	-0.181597	2.23353	1.76879	0	0	-0.784819	-0.315797	-0.0774945	1.82796	1.55975	0	0
